<svg width="34" height="31" viewBox="0 0 34 31" fill="none" xmlns="http://www.w3.org/2000/svg">
<g id="Frame 5114">
<rect id="Vector" x="11.6686" y="1.97821" width="10.6622" height="10.2128" rx="3.55407" fill="#252F43" stroke="#252F43" stroke-width="3.55407" stroke-linecap="round" stroke-linejoin="round"/>
<path id="Subtract" fill-rule="evenodd" clip-rule="evenodd" d="M19.2886 14.418H14.7196H14.7196C13.2125 14.418 11.9969 14.4179 11.0126 14.5207C9.99903 14.6265 9.10879 14.8501 8.28515 15.3864C6.97687 16.2382 5.9132 17.5975 5.2466 19.2694C4.82693 20.3219 4.65198 21.4595 4.56917 22.7547C4.48875 24.0126 4.48876 25.566 4.48877 27.4919V27.4919V28.6342C4.48877 29.6157 5.11136 30.4113 5.87936 30.4113H28.1288C28.8968 30.4113 29.5194 29.6157 29.5194 28.6342V27.4919V27.4917C29.5194 25.5659 29.5194 24.0126 29.439 22.7547C29.3562 21.4595 29.1812 20.3219 28.7616 19.2694C28.095 17.5975 27.0313 16.2382 25.723 15.3864C24.8994 14.8501 24.0092 14.6265 22.9956 14.5207C22.0113 14.4179 20.7957 14.418 19.2886 14.418H19.2886ZM18.3551 17.9727C18.3551 17.2366 17.7584 16.6399 17.0223 16.6399C16.2862 16.6399 15.6895 17.2366 15.6895 17.9727V21.0825H12.5797C11.8436 21.0825 11.2469 21.6792 11.2469 22.4153C11.2469 23.1514 11.8436 23.7481 12.5797 23.7481H15.6895V26.8579C15.6895 27.5939 16.2862 28.1906 17.0223 28.1906C17.7584 28.1906 18.3551 27.5939 18.3551 26.8579V23.7481H21.4649C22.2009 23.7481 22.7976 23.1514 22.7976 22.4153C22.7976 21.6792 22.2009 21.0825 21.4649 21.0825H18.3551V17.9727Z" fill="#252F43"/>
</g>
</svg>
