<svg width="19" height="19" viewBox="0 0 19 19" fill="none" xmlns="http://www.w3.org/2000/svg">
<path d="M11.4758 2.20208C11.4758 1.12613 10.6035 0.253906 9.5276 0.253906C8.45165 0.253906 7.57943 1.12613 7.57943 2.20208V5.33348C7.57943 6.43805 6.684 7.33348 5.57943 7.33348L2.44817 7.33348C1.37223 7.33348 0.5 8.2057 0.5 9.28165C0.5 10.3576 1.37223 11.2298 2.44817 11.2298H5.57943C6.684 11.2298 7.57943 12.1252 7.57943 13.2298V16.3057C7.57943 17.3817 8.45165 18.2539 9.5276 18.2539C10.6035 18.2539 11.4758 17.3817 11.4758 16.3057V13.2298C11.4758 12.1252 12.3712 11.2298 13.4758 11.2298H16.5518C17.6278 11.2298 18.5 10.3576 18.5 9.28165C18.5 8.2057 17.6278 7.33348 16.5518 7.33348L13.4758 7.33348C12.3712 7.33348 11.4758 6.43805 11.4758 5.33348V2.20208Z" fill="#F9FDFF"/>
</svg>
