<svg xmlns="http://www.w3.org/2000/svg" width="29" height="30" viewBox="0 0 29 30" fill="none">
<path fill-rule="evenodd" clip-rule="evenodd" d="M10.4517 4.83101C10.0772 4.88317 9.73658 4.95524 9.41609 5.0548C7.87498 5.53357 6.55895 6.47921 5.84516 7.77165C5.54048 8.32333 5.41398 8.90993 5.35488 9.55962C5.29831 10.1814 5.29832 10.9411 5.29834 11.8615L5.29834 11.8615V18.1387C5.29832 19.0592 5.29831 19.8188 5.35488 20.4406C5.41398 21.0903 5.54048 21.6769 5.84516 22.2286C6.55895 23.521 7.87498 24.4667 9.41609 24.9454C10.5773 25.3062 12.0024 25.306 14.3499 25.3056H14.35L14.5733 25.3056H15.2603L15.4238 25.3056H15.4239C17.1856 25.3058 18.2511 25.3059 19.1455 25.1024C21.1325 24.6504 22.8434 23.4492 23.5364 21.7359C23.7119 21.3019 23.783 20.8552 23.8163 20.3685C23.8483 19.9004 23.8482 19.3315 23.8482 18.6423V18.6422V9.44333C23.8482 9.39846 23.8453 9.35363 23.8395 9.30914C23.5244 6.90973 21.2673 5.24541 18.6923 4.80909C18.694 4.83316 18.6948 4.85746 18.6948 4.88195V5.75825V5.7583C18.6949 6.21033 18.6949 6.60037 18.6728 6.92318C18.6497 7.26309 18.5986 7.60308 18.4595 7.93896C18.1457 8.6965 17.5439 9.29837 16.7863 9.61215C16.4504 9.75128 16.1104 9.8023 15.7705 9.82549C15.4477 9.84751 15.0577 9.8475 14.6056 9.84749H14.5397C14.0876 9.8475 13.6976 9.84751 13.3748 9.82549C13.0349 9.8023 12.6949 9.75128 12.359 9.61215C11.6014 9.29837 10.9996 8.6965 10.6858 7.93896C10.5467 7.60308 10.4956 7.26309 10.4725 6.92318C10.4504 6.60035 10.4504 6.2103 10.4504 5.75825L10.4505 5.72529V4.88195C10.4505 4.86487 10.4509 4.84789 10.4517 4.83101ZM16.6507 4.69462L14.5733 4.69462L14.35 4.6946C13.6574 4.6945 13.0451 4.69441 12.4962 4.7036C12.5063 4.76153 12.5115 4.82113 12.5115 4.88195V5.72529C12.5115 6.21957 12.5121 6.53866 12.5288 6.78288C12.5448 7.01785 12.5722 7.10733 12.59 7.15021C12.6946 7.40273 12.8952 7.60335 13.1477 7.70794C13.1906 7.72571 13.2801 7.75314 13.5151 7.76917C13.7593 7.78583 14.0784 7.78639 14.5726 7.78639C15.0669 7.78639 15.386 7.78583 15.6302 7.76917C15.8652 7.75314 15.9547 7.72571 15.9976 7.70794C16.2501 7.60335 16.4507 7.40273 16.5553 7.15021C16.5731 7.10733 16.6005 7.01785 16.6165 6.78288C16.6332 6.53866 16.6337 6.21957 16.6337 5.72529V4.88195C16.6337 4.81798 16.6396 4.75537 16.6507 4.69462Z" fill="#E0F1FE"/>
</svg>